<svg xmlns="http://www.w3.org/2000/svg" xmlns:xlink="http://www.w3.org/1999/xlink" width="28" height="28" viewBox="0 0 28 28">
  <defs>
    <clipPath id="clip-path">
      <rect id="Rectangle_2232" data-name="Rectangle 2232" width="24" height="23.998" fill="none"/>
    </clipPath>
  </defs>
  <g id="Group_5202" data-name="Group 5202" transform="translate(-416 -2412)">
    <g id="Ellipse_96" data-name="Ellipse 96" transform="translate(416 2412)" fill="none" stroke="#fff" stroke-width="1">
      <circle cx="14" cy="14" r="14" stroke="none"/>
      <circle cx="14" cy="14" r="13.5" fill="none"/>
    </g>
    <g id="Group_4668" data-name="Group 4668" transform="translate(418 2414.001)">
      <g id="Group_4667" data-name="Group 4667" transform="translate(0 0)" clip-path="url(#clip-path)">
        <path id="Path_4125" data-name="Path 4125" d="M24,12.035A12,12,0,1,0,10.123,23.924v-8.41H7.078V12.035h3.045V9.383c0-3.015,1.792-4.682,4.534-4.682a18.345,18.345,0,0,1,2.687.236V7.9H15.832a1.738,1.738,0,0,0-1.958,1.879v2.258H17.2l-.531,3.479h-2.8v8.41A12.026,12.026,0,0,0,24,12.035" transform="translate(0 0)" fill="#fff"/>
      </g>
    </g>
  </g>
</svg>
