<svg xmlns="http://www.w3.org/2000/svg" xmlns:xlink="http://www.w3.org/1999/xlink" width="28" height="28" viewBox="0 0 28 28">
  <defs>
    <clipPath id="clip-path">
      <rect id="Rectangle_2233" data-name="Rectangle 2233" width="24" height="24" fill="none"/>
    </clipPath>
  </defs>
  <g id="Group_5203" data-name="Group 5203" transform="translate(-449 -2393)">
    <g id="Group_4670" data-name="Group 4670" transform="translate(451 2395.001)">
      <g id="Group_4669" data-name="Group 4669" transform="translate(0 0)" clip-path="url(#clip-path)">
        <path id="Path_4126" data-name="Path 4126" d="M23.98,12A11.99,11.99,0,1,1,11.989,0,12,12,0,0,1,23.98,12" transform="translate(0 0)" fill="#fff"/>
        <path id="Path_4127" data-name="Path 4127" d="M14.519,12A2.519,2.519,0,1,0,12,14.521,2.518,2.518,0,0,0,14.519,12m2.421-4.034a.906.906,0,1,1-.906-.906.9.9,0,0,1,.906.906M15.88,12A3.881,3.881,0,1,1,12,8.121,3.88,3.88,0,0,1,15.88,12m2.27,3.054c.037-.8.045-1.037.045-3.054s-.009-2.257-.045-3.054a4.118,4.118,0,0,0-.261-1.4,2.337,2.337,0,0,0-.564-.868,2.374,2.374,0,0,0-.869-.566,4.156,4.156,0,0,0-1.4-.261c-.8-.035-1.038-.044-3.054-.044s-2.255.009-3.053.044a4.167,4.167,0,0,0-1.4.261A2.522,2.522,0,0,0,6.108,7.545a4.2,4.2,0,0,0-.259,1.4C5.814,9.744,5.8,9.984,5.8,12s.009,2.257.044,3.054a4.2,4.2,0,0,0,.259,1.4,2.35,2.35,0,0,0,.567.868,2.291,2.291,0,0,0,.868.566,4.167,4.167,0,0,0,1.4.261c.8.037,1.035.044,3.053.044s2.257-.007,3.054-.044a4.156,4.156,0,0,0,1.4-.261,2.5,2.5,0,0,0,1.433-1.434,4.118,4.118,0,0,0,.261-1.4M19.555,12c0,2.052-.009,2.31-.044,3.115a5.591,5.591,0,0,1-.352,1.833,3.869,3.869,0,0,1-2.211,2.212,5.546,5.546,0,0,1-1.833.351c-.806.037-1.062.045-3.116.045s-2.31-.009-3.116-.045a5.554,5.554,0,0,1-1.833-.351A3.872,3.872,0,0,1,4.84,16.95a5.591,5.591,0,0,1-.352-1.833c-.037-.805-.044-1.063-.044-3.115s.007-2.31.044-3.115A5.591,5.591,0,0,1,4.84,7.052a3.864,3.864,0,0,1,2.21-2.21A5.549,5.549,0,0,1,8.884,4.49C9.69,4.454,9.948,4.446,12,4.446s2.31.009,3.116.044a5.541,5.541,0,0,1,1.833.352,3.861,3.861,0,0,1,2.211,2.21,5.591,5.591,0,0,1,.352,1.833c.035.805.044,1.063.044,3.115M24,12A12,12,0,1,0,12,24,12,12,0,0,0,24,12" transform="translate(0 0)" fill="#7094e0"/>
      </g>
    </g>
    <g id="Ellipse_97" data-name="Ellipse 97" transform="translate(449 2393)" fill="none" stroke="#7094e0" stroke-width="1">
      <circle cx="14" cy="14" r="14" stroke="none"/>
      <circle cx="14" cy="14" r="13.5" fill="none"/>
    </g>
  </g>
</svg>
