<svg xmlns="http://www.w3.org/2000/svg" xmlns:xlink="http://www.w3.org/1999/xlink" width="28" height="28" viewBox="0 0 28 28">
  <defs>
    <clipPath id="clip-path">
      <rect id="Rectangle_2235" data-name="Rectangle 2235" width="24" height="24" fill="none"/>
    </clipPath>
  </defs>
  <g id="Group_5205" data-name="Group 5205" transform="translate(-515 -2393)">
    <g id="Group_4673" data-name="Group 4673" transform="translate(517 2395.001)">
      <g id="Group_4673-2" data-name="Group 4673" transform="translate(0 0)" clip-path="url(#clip-path)">
        <path id="Path_4131" data-name="Path 4131" d="M18.757,10.48c0,.139-.021.147-.163.147a5.912,5.912,0,0,1-1.323-.158,6.329,6.329,0,0,1-2.078-.9c-.034-.021-.067-.067-.106-.053s-.021.081-.021.12c0,1.722.007,3.442,0,5.164A4.922,4.922,0,0,1,10.71,19.7a4.878,4.878,0,0,1-2.8-.5A2.467,2.467,0,0,1,7.5,18.95c-.041-.035-.081-.07-.122-.109a1.142,1.142,0,0,1-.254-.173,4.865,4.865,0,0,1-1.654-2.381A4.86,4.86,0,0,1,5.254,14.5,4.876,4.876,0,0,1,6.7,11.341,4.854,4.854,0,0,1,9.771,9.952a4.948,4.948,0,0,1,.967.021c.044.006.069.015.069.066,0,.179,0,.358,0,.537,0,0,.026,1.357.026,1.979,0,.022,0,.043,0,.066,0,.062-.037.082-.1.066a2.366,2.366,0,0,0-.518-.081,1.972,1.972,0,0,0-.794.119,2.2,2.2,0,0,0-.5,3.932c.06.044.123.082.182.132l.041.037A2.911,2.911,0,0,0,9.673,17a2.247,2.247,0,0,0,2.668-1.833,2.229,2.229,0,0,0,.025-.383V4.412c0-.161-.021-.141.139-.141h2.447c.082,0,.084,0,.084.085a5.12,5.12,0,0,0,.082.653,4.368,4.368,0,0,0,3.01,2.91,3.259,3.259,0,0,0,.522.045c.073,0,.075,0,.075.072,0,.163.032,1.833.032,2.445M24,12A12,12,0,1,0,12,24,12,12,0,0,0,24,12" transform="translate(0 0)" fill="#fff"/>
      </g>
    </g>
    <g id="Ellipse_99" data-name="Ellipse 99" transform="translate(515 2393)" fill="none" stroke="#fff" stroke-width="1">
      <circle cx="14" cy="14" r="14" stroke="none"/>
      <circle cx="14" cy="14" r="13.5" fill="none"/>
    </g>
  </g>
</svg>
