<svg xmlns="http://www.w3.org/2000/svg" xmlns:xlink="http://www.w3.org/1999/xlink" width="28" height="28" viewBox="0 0 28 28">
  <defs>
    <clipPath id="clip-path">
      <rect id="Rectangle_2234" data-name="Rectangle 2234" width="24" height="24" fill="none"/>
    </clipPath>
  </defs>
  <g id="Group_5204" data-name="Group 5204" transform="translate(-482 -2393)">
    <g id="Group_4672" data-name="Group 4672" transform="translate(484 2395.001)">
      <g id="Group_4671" data-name="Group 4671" transform="translate(0 0)" clip-path="url(#clip-path)">
        <path id="Path_4128" data-name="Path 4128" d="M24,11.983A12,12,0,1,1,12,0,11.991,11.991,0,0,1,24,11.983" transform="translate(0 0)" fill="#fff"/>
        <path id="Path_4129" data-name="Path 4129" d="M10.4,14.4,14.557,12,10.4,9.6ZM20,12a20.911,20.911,0,0,1-.333,3.852,2,2,0,0,1-1.414,1.415A47.7,47.7,0,0,1,12,17.6a47.655,47.655,0,0,1-6.25-.335,2,2,0,0,1-1.414-1.415A20.733,20.733,0,0,1,4,12a20.733,20.733,0,0,1,.336-3.852A2,2,0,0,1,5.749,6.734,47.655,47.655,0,0,1,12,6.4a47.694,47.694,0,0,1,6.253.335,2,2,0,0,1,1.414,1.415A20.911,20.911,0,0,1,20,12m4,0A12,12,0,1,0,12,24,12,12,0,0,0,24,12" transform="translate(0 0)" fill="#7094e0"/>
      </g>
    </g>
    <g id="Ellipse_98" data-name="Ellipse 98" transform="translate(482 2393)" fill="none" stroke="#7094e0" stroke-width="1">
      <circle cx="14" cy="14" r="14" stroke="none"/>
      <circle cx="14" cy="14" r="13.5" fill="none"/>
    </g>
  </g>
</svg>
