<svg id="Group_6032" data-name="Group 6032" xmlns="http://www.w3.org/2000/svg" xmlns:xlink="http://www.w3.org/1999/xlink" width="15.545" height="18.5" viewBox="0 0 15.545 18.5">
  <defs>
    <clipPath id="clip-path">
      <rect id="Rectangle_2854" data-name="Rectangle 2854" width="15.545" height="18.5" fill="#7094e0"/>
    </clipPath>
  </defs>
  <g id="Group_6031" data-name="Group 6031" clip-path="url(#clip-path)">
    <path id="Path_4545" data-name="Path 4545" d="M15.525,4.764c-.009-.5-.019-.971-.019-1.428a.648.648,0,0,0-.648-.648A8.928,8.928,0,0,1,8.224.184a.647.647,0,0,0-.9,0,8.927,8.927,0,0,1-6.635,2.5.648.648,0,0,0-.648.648c0,.457-.009.929-.019,1.428-.089,4.648-.21,11.014,7.54,13.7a.647.647,0,0,0,.424,0c7.751-2.687,7.63-9.053,7.541-13.7m-7.753,12.4c-6.647-2.415-6.547-7.7-6.457-12.377.005-.28.011-.552.014-.819A9.986,9.986,0,0,0,7.772,1.528,9.987,9.987,0,0,0,14.216,3.97c0,.266.009.538.014.818.089,4.673.19,9.963-6.458,12.377" transform="translate(0 0)" fill="#7094e0"/>
    <path id="Path_4546" data-name="Path 4546" d="M56.962,79.075,53.836,82.2,52.5,80.867a.648.648,0,0,0-.916.916l1.792,1.792a.648.648,0,0,0,.916,0l3.583-3.583a.648.648,0,1,0-.916-.916" transform="translate(-46.96 -72.075)" fill="#7094e0"/>
  </g>
</svg>
