<svg xmlns="http://www.w3.org/2000/svg" width="30.962" height="35.649" viewBox="0 0 30.962 35.649">
  <g id="Group_4659" data-name="Group 4659" transform="translate(1 1)">
    <path id="Path_4146" data-name="Path 4146" d="M43.383,16.127h0a9.967,9.967,0,1,0-17.057,0h0l0,0c.127.209.263.411.4.609l8.122,12.237L42.976,16.74c.142-.2.278-.4.4-.61Z" transform="translate(-20.374 -1)" fill="none" stroke="#7094e0" stroke-miterlimit="10" stroke-width="2"/>
    <path id="Path_4147" data-name="Path 4147" d="M58.412,31.529a3.859,3.859,0,1,1-3.859-3.859,3.859,3.859,0,0,1,3.859,3.859" transform="translate(-40.072 -21.399)" fill="#fff"/>
    <path id="Path_4148" data-name="Path 4148" d="M19.583,116.348l-4.1,6.18-4.1-6.18C5.38,117.087,1,119.4,1,122.15c0,3.341,6.483,6.05,14.481,6.05s14.481-2.708,14.481-6.05C29.962,119.4,25.582,117.087,19.583,116.348Z" transform="translate(-1 -94.551)" fill="none" stroke="#7094e0" stroke-miterlimit="10" stroke-width="2"/>
  </g>
</svg>