<svg xmlns="http://www.w3.org/2000/svg" xmlns:xlink="http://www.w3.org/1999/xlink" width="26.202" height="24.619" viewBox="0 0 26.202 24.619">
  <defs>
    <clipPath id="clip-path">
      <rect id="Rectangle_2315" data-name="Rectangle 2315" width="26.202" height="24.619" fill="none"/>
    </clipPath>
  </defs>
  <g id="Group_5051" data-name="Group 5051" transform="translate(1 1)">
    <g id="Group_4865" data-name="Group 4865" transform="translate(-1 -1)" clip-path="url(#clip-path)">
      <line id="Line_205" data-name="Line 205" y1="6.811" x2="8.711" transform="translate(1.754 16.129)" fill="none" stroke="#7094e0" stroke-miterlimit="10" stroke-width="1.5"/>
      <path id="Path_4219" data-name="Path 4219" d="M24.133,12.981V25.265a1.791,1.791,0,0,1-1.791,1.791H2.541A1.791,1.791,0,0,1,.75,25.265V12.981" transform="translate(0.659 -3.846)" fill="none" stroke="#7094e0" stroke-miterlimit="10" stroke-width="1.5"/>
      <path id="Path_4220" data-name="Path 4220" d="M24.133,12.842l-10.589,8.28a1.791,1.791,0,0,1-2.206,0L.75,12.842" transform="translate(0.659 -3.795)" fill="none" stroke="#7094e0" stroke-miterlimit="10" stroke-width="1.5"/>
      <path id="Path_4221" data-name="Path 4221" d="M.75,8.4,3.277,6.666l8.151-5.6a1.789,1.789,0,0,1,2.028,0L24.133,8.4" transform="translate(0.659 0.659)" fill="none" stroke="#7094e0" stroke-miterlimit="10" stroke-width="1.5"/>
      <path id="Path_4222" data-name="Path 4222" d="M.75,10.138v-.075l6.993-4.8" transform="translate(0.659 -1.002)" fill="none" stroke="#7094e0" stroke-miterlimit="10" stroke-width="1.5"/>
      <path id="Path_4223" data-name="Path 4223" d="M26.7,5.26l6.993,4.8v.075" transform="translate(-8.898 -1.002)" fill="none" stroke="#7094e0" stroke-miterlimit="10" stroke-width="1.5"/>
      <path id="Path_4224" data-name="Path 4224" d="M18.236,12.1a1.975,1.975,0,0,1-2.807.109,1.931,1.931,0,0,1-.2-2.552,1.954,1.954,0,0,1,2.721-.369c.008-.034.013-.064.021-.093A.388.388,0,0,1,18.4,8.9a.381.381,0,0,1,.335.388c0,.619,0,1.238,0,1.858a.779.779,0,0,0,.513.777.758.758,0,0,0,1.02-.7,3.594,3.594,0,0,0-.525-2.214,3.4,3.4,0,0,0-2.434-1.6,3.332,3.332,0,0,0-3.15,1.146,3.271,3.271,0,0,0-.839,2.488,3.4,3.4,0,0,0,1.713,2.808,3.359,3.359,0,0,0,2.942.268,3.27,3.27,0,0,0,.9-.476.409.409,0,0,1,.37-.093.367.367,0,0,1,.279.287.356.356,0,0,1-.159.4,7.709,7.709,0,0,1-.91.515A4.259,4.259,0,0,1,12.625,11.7a4.239,4.239,0,0,1,2.836-4.9,4.028,4.028,0,0,1,2.033-.141,4.235,4.235,0,0,1,3.012,2.126,3.89,3.89,0,0,1,.529,1.9,3.757,3.757,0,0,1-.049.889A1.426,1.426,0,0,1,19.84,12.7a1.481,1.481,0,0,1-1.525-.525l-.058-.068s-.008,0-.021-.009m-1.469-.125a1.155,1.155,0,1,0-.006-2.309,1.154,1.154,0,0,0,.006,2.309" transform="translate(-3.68 -1.491)" fill="#17255d"/>
      <path id="Path_4225" data-name="Path 4225" d="M18.236,12.1a1.975,1.975,0,0,1-2.807.109,1.931,1.931,0,0,1-.2-2.552,1.954,1.954,0,0,1,2.721-.369c.008-.034.013-.064.021-.093A.388.388,0,0,1,18.4,8.9a.381.381,0,0,1,.335.388c0,.619,0,1.238,0,1.858a.779.779,0,0,0,.513.777.758.758,0,0,0,1.02-.7,3.594,3.594,0,0,0-.525-2.214,3.4,3.4,0,0,0-2.434-1.6,3.332,3.332,0,0,0-3.15,1.146,3.271,3.271,0,0,0-.839,2.488,3.4,3.4,0,0,0,1.713,2.808,3.359,3.359,0,0,0,2.942.268,3.27,3.27,0,0,0,.9-.476.409.409,0,0,1,.37-.093.367.367,0,0,1,.279.287.356.356,0,0,1-.159.4,7.709,7.709,0,0,1-.91.515A4.259,4.259,0,0,1,12.625,11.7a4.239,4.239,0,0,1,2.836-4.9,4.028,4.028,0,0,1,2.033-.141,4.235,4.235,0,0,1,3.012,2.126,3.89,3.89,0,0,1,.529,1.9,3.757,3.757,0,0,1-.049.889A1.426,1.426,0,0,1,19.84,12.7a1.481,1.481,0,0,1-1.525-.525l-.058-.068S18.249,12.1,18.236,12.1Zm-1.469-.125a1.155,1.155,0,1,0-.006-2.309,1.154,1.154,0,0,0,.006,2.309Z" transform="translate(-3.68 -1.491)" fill="none" stroke="#17255d" stroke-miterlimit="10" stroke-width="0.25"/>
      <line id="Line_206" data-name="Line 206" x1="8.711" y1="6.811" transform="translate(15.736 16.129)" fill="none" stroke="#7094e0" stroke-miterlimit="10" stroke-width="1.5"/>
    </g>
  </g>
</svg>
