<svg xmlns="http://www.w3.org/2000/svg" xmlns:xlink="http://www.w3.org/1999/xlink" width="205.041" height="275.802" viewBox="0 0 205.041 275.802">
  <defs>
    <clipPath id="clip-path">
      <rect id="Rectangle_2919" data-name="Rectangle 2919" width="205.041" height="275.802" fill="#7094e0"/>
    </clipPath>
  </defs>
  <g id="Group_6266" data-name="Group 6266" transform="translate(0 0)" opacity="0.2">
    <g id="Group_6265" data-name="Group 6265" transform="translate(0 0)" clip-path="url(#clip-path)">
      <path id="Path_4685" data-name="Path 4685" d="M101.878,275.8a95.84,95.84,0,0,1-46.957-12.508C28.493,248.64,11.16,227.016,3.4,199.012c-6.162-22.228-3.925-45.07,6.649-67.895,5.89-12.713,14.139-25.021,26.742-39.9,5.187-6.126,10.445-12.191,15.7-18.253C58.32,66.249,64.34,59.306,70.158,52.394c12.758-15.168,21.783-28.9,28.4-43.221.289-.623.567-1.251.845-1.879L102.65,0l2.343,5.181c.486,1.076.928,2.06,1.379,3.038A177.482,177.482,0,0,0,131.457,47.56c7.018,8.48,14.328,16.966,21.4,25.171q6.279,7.284,12.519,14.6c8.972,10.554,19.2,23.334,27.011,38.121a105.579,105.579,0,0,1,12.294,40.828c2.09,25.674-5.337,49.214-22.075,69.966-16.124,19.99-36.7,32.626-61.152,37.559a98.863,98.863,0,0,1-19.573,1.993m.795-267.933-.328.737c-.284.642-.57,1.287-.864,1.926C94.829,24.91,85.39,39.283,72.618,54.464c-5.829,6.932-11.86,13.884-17.689,20.61-5.25,6.051-10.5,12.107-15.679,18.222-12.41,14.651-20.513,26.733-26.277,39.174C2.727,154.582.551,176.679,6.5,198.156c7.519,27.136,24.332,48.1,49.975,62.314,20.332,11.271,41.979,14.687,64.334,10.179,23.7-4.781,43.644-17.036,59.284-36.425,16.2-20.085,23.392-42.857,21.372-67.684a102.469,102.469,0,0,0-11.93-39.586c-7.669-14.512-17.761-27.12-26.622-37.54q-6.216-7.321-12.5-14.581c-7.079-8.216-14.4-16.713-21.438-25.221a180.591,180.591,0,0,1-25.53-40.047c-.256-.559-.511-1.12-.775-1.7" transform="translate(0.016 0)" fill="#7094e0"/>
      <path id="Path_4686" data-name="Path 4686" d="M64.711,187.348a14.989,14.989,0,1,1-14.89-15.159,14.949,14.949,0,0,1,14.89,15.159m110.018-40.489a85.656,85.656,0,0,0-10.106-33.407c-6.084-11.463-14-21.622-22.378-31.436-9.423-11.035-19.042-21.9-28.312-33.059A149.972,149.972,0,0,1,92.812,15.978c-.586-1.276-1.159-2.554-1.873-4.125-.492,1.1-.82,1.832-1.151,2.565-.35.784-.695,1.57-1.056,2.349-6.157,13.267-14.506,25.1-23.893,36.214C55.672,63.832,46.2,74.422,36.994,85.243c-8.6,10.109-16.48,20.738-22.119,32.854-8.308,17.853-10.793,36.389-5.476,55.5,6.549,23.531,21.135,40.886,42.351,52.594,17.094,9.431,35.391,12.458,54.6,8.6,20.44-4.108,37.17-14.592,50.251-30.741,13.472-16.63,19.887-35.658,18.128-57.188" transform="translate(11.739 21.092)" fill="#7094e0"/>
    </g>
  </g>
</svg>
