<svg xmlns="http://www.w3.org/2000/svg" xmlns:xlink="http://www.w3.org/1999/xlink" width="851.638" height="834.139" viewBox="0 0 851.638 834.139">
  <defs>
    <clipPath id="clip-path">
      <path id="Path_3715" data-name="Path 3715" d="M0,227.3H655.679V-393.855H0Z" transform="translate(0 393.855)" fill="none"/>
    </clipPath>
    <clipPath id="clip-path-2">
      <rect id="Rectangle_375" data-name="Rectangle 375" width="45.177" height="60.947" fill="none"/>
    </clipPath>
    <clipPath id="clip-path-3">
      <rect id="Rectangle_376" data-name="Rectangle 376" width="85.71" height="101.482" fill="none"/>
    </clipPath>
    <clipPath id="clip-path-4">
      <rect id="Rectangle_377" data-name="Rectangle 377" width="122.592" height="138.363" fill="none"/>
    </clipPath>
    <clipPath id="clip-path-5">
      <rect id="Rectangle_378" data-name="Rectangle 378" width="38.546" height="54.317" fill="none"/>
    </clipPath>
    <clipPath id="clip-path-6">
      <rect id="Rectangle_379" data-name="Rectangle 379" width="72.672" height="88.443" fill="none"/>
    </clipPath>
    <clipPath id="clip-path-7">
      <rect id="Rectangle_380" data-name="Rectangle 380" width="122.667" height="138.438" fill="none"/>
    </clipPath>
    <clipPath id="clip-path-8">
      <rect id="Rectangle_381" data-name="Rectangle 381" width="201.215" height="216.986" fill="none"/>
    </clipPath>
    <clipPath id="clip-path-9">
      <rect id="Rectangle_382" data-name="Rectangle 382" width="262.111" height="277.882" fill="none"/>
    </clipPath>
    <clipPath id="clip-path-10">
      <rect id="Rectangle_383" data-name="Rectangle 383" width="267.252" height="283.023" fill="none"/>
    </clipPath>
    <clipPath id="clip-path-11">
      <rect id="Rectangle_384" data-name="Rectangle 384" width="381.09" height="396.861" fill="none"/>
    </clipPath>
    <clipPath id="clip-path-12">
      <rect id="Rectangle_385" data-name="Rectangle 385" width="364.784" height="380.554" fill="none"/>
    </clipPath>
    <clipPath id="clip-path-13">
      <rect id="Rectangle_386" data-name="Rectangle 386" width="364.785" height="380.554" fill="none"/>
    </clipPath>
  </defs>
  <g id="Group_555" data-name="Group 555" transform="translate(92.45 359.804) rotate(24)" opacity="0.7">
    <g id="Group_715" data-name="Group 715" transform="translate(0 -393.855)" clip-path="url(#clip-path)">
      <g id="Group_670" data-name="Group 670" transform="translate(-11.04 304.787)" opacity="0.2">
        <g id="Group_669" data-name="Group 669">
          <g id="Group_668" data-name="Group 668" clip-path="url(#clip-path-2)">
            <g id="Group_667" data-name="Group 667" transform="translate(11.039 14.193)">
              <path id="Path_3703" data-name="Path 3703" d="M11.915,5.957a16.281,16.281,0,0,0-16.28-16.28,16.281,16.281,0,0,0-16.28,16.28,16.281,16.281,0,0,0,16.28,16.28,16.281,16.281,0,0,0,16.28-16.28" transform="translate(20.646 10.323)" fill="#538dcb"/>
            </g>
          </g>
        </g>
      </g>
      <g id="Group_674" data-name="Group 674" transform="translate(21.521 334.59)" opacity="0.2">
        <g id="Group_673" data-name="Group 673" transform="translate(0 0)">
          <g id="Group_672" data-name="Group 672" clip-path="url(#clip-path-3)">
            <g id="Group_671" data-name="Group 671" transform="translate(11.04 14.195)">
              <path id="Path_3704" data-name="Path 3704" d="M26.747,13.373A36.547,36.547,0,0,0-9.8-23.173,36.547,36.547,0,0,0-46.346,13.373,36.546,36.546,0,0,0-9.8,49.92,36.546,36.546,0,0,0,26.747,13.373" transform="translate(46.346 23.173)" fill="#538dcb"/>
            </g>
          </g>
        </g>
      </g>
      <g id="Group_678" data-name="Group 678" transform="translate(62.426 99.664)" opacity="0.2">
        <g id="Group_677" data-name="Group 677">
          <g id="Group_676" data-name="Group 676" clip-path="url(#clip-path-4)">
            <g id="Group_675" data-name="Group 675" transform="translate(11.04 14.194)">
              <path id="Path_3705" data-name="Path 3705" d="M40.243,20.121A54.987,54.987,0,0,0-14.745-34.866,54.987,54.987,0,0,0-69.732,20.121,54.987,54.987,0,0,0-14.745,75.109,54.987,54.987,0,0,0,40.243,20.121" transform="translate(69.732 34.866)" fill="#538dcb"/>
            </g>
          </g>
        </g>
      </g>
      <g id="Group_682" data-name="Group 682" transform="translate(195.872 488.824)" opacity="0.2">
        <g id="Group_681" data-name="Group 681" transform="translate(0 0)">
          <g id="Group_680" data-name="Group 680" clip-path="url(#clip-path-5)">
            <g id="Group_679" data-name="Group 679" transform="translate(11.039 14.195)">
              <path id="Path_3706" data-name="Path 3706" d="M9.488,4.744A12.963,12.963,0,0,0-3.476-8.22,12.964,12.964,0,0,0-16.441,4.744,12.964,12.964,0,0,0-3.476,17.708,12.963,12.963,0,0,0,9.488,4.744" transform="translate(16.441 8.22)" fill="#538dcb"/>
            </g>
          </g>
        </g>
      </g>
      <g id="Group_686" data-name="Group 686" transform="translate(584.585 236.61)" opacity="0.2">
        <g id="Group_685" data-name="Group 685">
          <g id="Group_684" data-name="Group 684" clip-path="url(#clip-path-6)">
            <g id="Group_683" data-name="Group 683" transform="translate(11.04 14.195)">
              <path id="Path_3707" data-name="Path 3707" d="M21.976,10.988A30.026,30.026,0,0,0-8.051-19.039,30.027,30.027,0,0,0-38.079,10.988,30.027,30.027,0,0,0-8.051,41.014,30.026,30.026,0,0,0,21.976,10.988" transform="translate(38.079 19.039)" fill="#538dcb"/>
            </g>
          </g>
        </g>
      </g>
      <g id="Group_690" data-name="Group 690" transform="translate(504.562 384.548)" opacity="0.2">
        <g id="Group_689" data-name="Group 689">
          <g id="Group_688" data-name="Group 688" clip-path="url(#clip-path-7)">
            <g id="Group_687" data-name="Group 687" transform="translate(11.039 14.194)">
              <path id="Path_3708" data-name="Path 3708" d="M40.271,20.135A55.026,55.026,0,0,0-14.755-34.89,55.026,55.026,0,0,0-69.78,20.135,55.026,55.026,0,0,0-14.755,75.161,55.026,55.026,0,0,0,40.271,20.135" transform="translate(69.78 34.89)" fill="#538dcb"/>
            </g>
          </g>
        </g>
      </g>
      <g id="Group_694" data-name="Group 694" transform="translate(434.433 134.302)" opacity="0.2">
        <g id="Group_693" data-name="Group 693">
          <g id="Group_692" data-name="Group 692" clip-path="url(#clip-path-8)">
            <g id="Group_691" data-name="Group 691" transform="translate(11.04 14.195)">
              <path id="Path_3709" data-name="Path 3709" d="M69.013,34.506a94.3,94.3,0,0,0-94.3-94.3,94.3,94.3,0,0,0-94.3,94.3,94.3,94.3,0,0,0,94.3,94.3,94.3,94.3,0,0,0,94.3-94.3" transform="translate(119.585 59.792)" fill="#538dcb"/>
            </g>
          </g>
        </g>
      </g>
      <g id="Group_698" data-name="Group 698" transform="translate(310.094 213.225)" opacity="0.2">
        <g id="Group_697" data-name="Group 697">
          <g id="Group_696" data-name="Group 696" clip-path="url(#clip-path-9)">
            <g id="Group_695" data-name="Group 695" transform="translate(11.04 14.195)">
              <path id="Path_3710" data-name="Path 3710" d="M91.3,45.648A124.746,124.746,0,0,0-33.449-79.1,124.747,124.747,0,0,0-158.2,45.648,124.747,124.747,0,0,0-33.449,170.394,124.746,124.746,0,0,0,91.3,45.648" transform="translate(158.197 79.098)" fill="#538dcb"/>
            </g>
          </g>
        </g>
      </g>
      <g id="Group_702" data-name="Group 702" transform="translate(160.07 352.323)" opacity="0.2">
        <g id="Group_701" data-name="Group 701" transform="translate(0 0)">
          <g id="Group_700" data-name="Group 700" clip-path="url(#clip-path-10)">
            <g id="Group_699" data-name="Group 699" transform="translate(11.039 14.195)">
              <path id="Path_3711" data-name="Path 3711" d="M93.178,46.589A127.316,127.316,0,0,0-34.139-80.728,127.318,127.318,0,0,0-161.457,46.589,127.318,127.318,0,0,0-34.139,173.905,127.316,127.316,0,0,0,93.178,46.589" transform="translate(161.457 80.728)" fill="#538dcb"/>
            </g>
          </g>
        </g>
      </g>
      <g id="Group_706" data-name="Group 706" transform="translate(136.089 134.595)" opacity="0.2">
        <g id="Group_705" data-name="Group 705">
          <g id="Group_704" data-name="Group 704" clip-path="url(#clip-path-11)">
            <g id="Group_703" data-name="Group 703" transform="translate(11.04 14.194)">
              <path id="Path_3712" data-name="Path 3712" d="M134.835,67.417A184.236,184.236,0,0,0-49.4-116.819c-101.752,0-184.238,82.484-184.238,184.236S-151.153,251.653-49.4,251.653A184.236,184.236,0,0,0,134.835,67.417" transform="translate(233.639 116.819)" fill="#538dcb"/>
            </g>
          </g>
        </g>
      </g>
      <g id="Group_710" data-name="Group 710" transform="translate(51.361 123.363)" opacity="0.2">
        <g id="Group_709" data-name="Group 709">
          <g id="Group_708" data-name="Group 708" clip-path="url(#clip-path-12)">
            <g id="Group_707" data-name="Group 707" transform="translate(11.04 14.193)">
              <path id="Path_3713" data-name="Path 3713" d="M128.867,64.434A176.084,176.084,0,0,0-47.217-111.65,176.084,176.084,0,0,0-223.3,64.434,176.084,176.084,0,0,0-47.217,240.518,176.084,176.084,0,0,0,128.867,64.434" transform="translate(223.299 111.65)" fill="#538dcb"/>
            </g>
          </g>
        </g>
      </g>
      <g id="Group_714" data-name="Group 714" transform="translate(208.836 -14.194)" opacity="0.2">
        <g id="Group_713" data-name="Group 713">
          <g id="Group_712" data-name="Group 712" clip-path="url(#clip-path-13)">
            <g id="Group_711" data-name="Group 711" transform="translate(11.041 14.193)">
              <path id="Path_3714" data-name="Path 3714" d="M128.867,64.434A176.084,176.084,0,0,0-47.217-111.65,176.084,176.084,0,0,0-223.3,64.434,176.084,176.084,0,0,0-47.217,240.518,176.084,176.084,0,0,0,128.867,64.434" transform="translate(223.299 111.65)" fill="#538dcb"/>
            </g>
          </g>
        </g>
      </g>
    </g>
  </g>
</svg>
