<svg xmlns="http://www.w3.org/2000/svg" xmlns:xlink="http://www.w3.org/1999/xlink" width="27.443" height="27.714" viewBox="0 0 27.443 27.714">
  <defs>
    <clipPath id="clip-path">
      <path id="Path_4230" data-name="Path 4230" d="M0-1.432H27.443V-29.146H0Z" transform="translate(0 29.146)" fill="none"/>
    </clipPath>
  </defs>
  <g id="Group_5052" data-name="Group 5052" transform="translate(1.116 30.273)">
    <g id="Group_4870" data-name="Group 4870" transform="translate(-1.116 -30.273)" clip-path="url(#clip-path)">
      <g id="Group_4866" data-name="Group 4866" transform="translate(1.749 1.762)">
        <path id="Path_4226" data-name="Path 4226" d="M-2.976-.361a11.459,11.459,0,0,0-9.4-2.036A11.494,11.494,0,0,0-19.66,2.4,11.875,11.875,0,0,0-21.4,12.946a10.992,10.992,0,0,0,1.213,2.747,1.373,1.373,0,0,1,.135,1.277c-.115.3-.2.618-.3.927-.31.973-.62,1.946-.95,2.983.156-.041.252-.06.345-.091,1.035-.335,2.086-.627,3.1-1.023a2.26,2.26,0,0,1,2.129.226,11.405,11.405,0,0,0,8.182,1.273,11.614,11.614,0,0,0,7.294-4.79A11.756,11.756,0,0,0,1.759,7.009,11.676,11.676,0,0,0-2.976-.361Z" transform="translate(21.928 2.663)" fill="none" stroke="#7094e0" stroke-width="1.5"/>
      </g>
      <g id="Group_4867" data-name="Group 4867" transform="translate(5.938 11.991)">
        <path id="Path_4227" data-name="Path 4227" d="M-.288-.586A1.862,1.862,0,0,1-2.123-2.456,1.861,1.861,0,0,1-.245-4.318,1.861,1.861,0,0,1,1.609-2.43,1.862,1.862,0,0,1-.288-.586" transform="translate(2.123 4.318)" fill="#17255d"/>
      </g>
      <g id="Group_4868" data-name="Group 4868" transform="translate(11.856 11.991)">
        <path id="Path_4228" data-name="Path 4228" d="M-.293-.586A1.861,1.861,0,0,1-2.162-2.459,1.861,1.861,0,0,1-.318-4.318,1.861,1.861,0,0,1,1.57-2.464,1.861,1.861,0,0,1-.293-.586" transform="translate(2.162 4.318)" fill="#17255d"/>
      </g>
      <g id="Group_4869" data-name="Group 4869" transform="translate(17.774 11.991)">
        <path id="Path_4229" data-name="Path 4229" d="M-.288-.586A1.861,1.861,0,0,1-2.119-2.459,1.861,1.861,0,0,1-.237-4.318a1.862,1.862,0,0,1,1.85,1.891A1.862,1.862,0,0,1-.288-.586" transform="translate(2.119 4.318)" fill="#17255d"/>
      </g>
    </g>
  </g>
</svg>
