<svg xmlns="http://www.w3.org/2000/svg" width="37.858" height="35.889" viewBox="0 0 37.858 35.889">
  <g id="Group_5900" data-name="Group 5900" transform="translate(-1598.006 -49.991)">
    <g id="Group_5899" data-name="Group 5899">
      <path id="Path_4506" data-name="Path 4506" d="M29.653,21.558a1.726,1.726,0,0,0,1.025-1.493V10.638a.7.7,0,0,0-1.025-.7L26.7,11.071a1.727,1.727,0,0,0-1.025,1.493v9.427a.7.7,0,0,0,1.025.7Z" transform="translate(1597.475 49.965)" fill="#fff"/>
      <path id="Path_4507" data-name="Path 4507" d="M30.339,9.4s-.461-.18-1.025-.4L20.588,5.63a3.3,3.3,0,0,0-2.05,0L15.584,6.765c-.564.217-.565.572,0,.79l9.756,3.771h.009L29.314,9.8c.564-.217,1.025-.4,1.025-.4" transform="translate(1597.805 50.103)" fill="#fff"/>
      <path id="Path_4508" data-name="Path 4508" d="M19.259,35.034V14.553L37.188,7.662" transform="translate(1597.676 50.034)" fill="none" stroke="#7094e0" stroke-miterlimit="10" stroke-width="2"/>
      <path id="Path_4509" data-name="Path 4509" d="M17.929,6.892,0,0" transform="translate(1599.006 57.695)" fill="none" stroke="#7094e0" stroke-width="2"/>
      <path id="Path_4510" data-name="Path 4510" d="M36.608,7.445V27.926L19.664,34.438a2.742,2.742,0,0,1-1.97,0L.75,27.926V7.445L17.694.932a2.752,2.752,0,0,1,1.97,0Z" transform="translate(1598.256 50.25)" fill="none" stroke="#7094e0" stroke-miterlimit="10" stroke-width="2"/>
      <path id="Path_4511" data-name="Path 4511" d="M13.941,21.314a1.537,1.537,0,0,1,1.027,1.209c0,.45-.462.643-1.027.429l-8.76-3.324a1.539,1.539,0,0,1-1.027-1.209c0-.45.462-.644,1.027-.429Z" transform="translate(1598.148 49.713)" fill="#fff"/>
      <path id="Path_4512" data-name="Path 4512" d="M13.941,18.314a1.537,1.537,0,0,1,1.027,1.209c0,.45-.462.643-1.027.429l-8.76-3.324a1.539,1.539,0,0,1-1.027-1.209c0-.45.462-.644,1.027-.429Z" transform="translate(1598.148 49.807)" fill="#fff"/>
    </g>
  </g>
</svg>
