<svg xmlns="http://www.w3.org/2000/svg" width="35.867" height="35.867" viewBox="0 0 35.867 35.867">
  <g id="Group_4660" data-name="Group 4660" transform="translate(1 1)">
    <circle id="Ellipse_82" data-name="Ellipse 82" cx="16.933" cy="16.933" r="16.933" transform="translate(0)" fill="none" stroke="#7094e0" stroke-miterlimit="10" stroke-width="2"/>
    <path id="Path_4149" data-name="Path 4149" d="M29.24,23.51a4.317,4.317,0,0,0,4.463.063A6.3,6.3,0,0,0,37,18.445a4.572,4.572,0,0,0-.351-2.426,5.373,5.373,0,0,0-2.18-2.64,5.7,5.7,0,0,0-2.533-.786A5.359,5.359,0,0,0,27.3,14.5a5.213,5.213,0,0,0-1.241,3.533,7.035,7.035,0,0,0,.088,1.067,6.48,6.48,0,0,0,3.1,4.411" transform="translate(-14.603 -5.758)" fill="#fff"/>
    <path id="Path_4150" data-name="Path 4150" d="M12.427,54.644h0c5.712,6.8,14.971,6.8,20.682,0-5.711-6.8-14.971-6.8-20.682,0" transform="translate(-5.835 -29.155)" fill="#fff"/>
  </g>
</svg>
