<svg xmlns="http://www.w3.org/2000/svg" xmlns:xlink="http://www.w3.org/1999/xlink" width="53.653" height="49.068" viewBox="0 0 53.653 49.068">
  <defs>
    <clipPath id="clip-path">
      <rect id="Rectangle_372" data-name="Rectangle 372" width="53.653" height="49.067" transform="translate(0 0)" fill="none"/>
    </clipPath>
  </defs>
  <g id="Group_5713" data-name="Group 5713" transform="translate(2 2)">
    <g id="Group_662" data-name="Group 662" transform="translate(-2 -2)" clip-path="url(#clip-path)">
      <path id="Path_3698" data-name="Path 3698" d="M22.715,18.055c-.083,2.539-.169,5.078-.245,7.618-.026.862-.241,1.095-1.091,1.1-.341,0-.683.005-1.023,0-.665-.015-.927-.276-.95-.93q-.093-2.658-.182-5.317-.161-4.958-.315-9.917c-.031-1.011.2-1.244,1.2-1.246.614,0,1.227,0,1.842,0,.737.005,1.037.294,1.015,1.023-.077,2.556-.167,5.112-.253,7.669h0" transform="translate(5.89 5.07)" fill="#101b40"/>
      <path id="Path_3699" data-name="Path 3699" d="M22.942,29.836c0,.426.016.852,0,1.277-.029.614-.285.88-.881.895q-1.124.029-2.249,0a.77.77,0,0,1-.872-.848c-.027-.9-.028-1.806,0-2.707.02-.585.329-.849.925-.858q1.073-.018,2.147,0a.827.827,0,0,1,.927.913c.022.441,0,.885,0,1.328" transform="translate(5.891 6.636)" fill="#101b40"/>
      <path id="Path_3700" data-name="Path 3700" d="M18.444,3.089,1.384,32.638a4.678,4.678,0,0,0,4.051,7.017H39.556a4.678,4.678,0,0,0,4.051-7.017L26.547,3.089A4.678,4.678,0,0,0,18.444,3.089Z" transform="translate(4.331 4.331)" fill="none" stroke="#7094e0" stroke-miterlimit="10" stroke-width="3"/>
    </g>
  </g>
</svg>
